<svg xmlns="http://www.w3.org/2000/svg" xmlns:xlink="http://www.w3.org/1999/xlink" version="1.0" id="Calque_1" x="0px" y="0px" viewBox="0 0 1000 248.1" style="enable-background:new 0 0 1000 248.1;" xml:space="preserve"><link xmlns="" type="text/css" rel="stylesheet" id="dark-mode-custom-link"/><link xmlns="" type="text/css" rel="stylesheet" id="dark-mode-general-link"/><style xmlns="" lang="en" type="text/css" id="dark-mode-custom-style"/><style xmlns="" lang="en" type="text/css" id="dark-mode-native-style"/><style xmlns="" lang="en" type="text/css" id="dark-mode-native-sheet"/>
<style type="text/css">
	.st0{fill:#FFFFFF;}
	.st1{fill:#0D1C2C;}
</style>
<g>
	<polygon class="st0" points="17.25,113.58 26.88,113.58 26.88,59.7 12.56,59.7 12.56,71.91 0,71.91 0,48.2 67.02,48.2 67.02,71.91    54.46,71.91 54.46,59.7 40.14,59.7 40.14,113.58 49.77,113.58 49.77,125.43 17.25,125.43  "/>
	<path class="st0" d="M115.24,89.98l-10.8-30.4l-10.8,30.4H115.24z M65.36,113.58h6.69L91.3,59.93h-8.45V48.2h43.66v11.74h-8.45   l19.25,53.64H144v11.85h-29.7v-11.74h8.92l-4.35-12.67H90.01l-4.34,12.67h9.39v11.74h-29.7V113.58z"/>
	<polygon class="st0" points="171.56,72.14 171.56,113.58 181.18,113.58 181.18,125.43 149.84,125.43 149.84,113.58 158.65,113.58    158.65,60.05 149.84,60.05 149.84,48.2 169.92,48.2 207.94,96.67 207.94,60.05 198.32,60.05 198.32,48.2 229.31,48.2 229.31,60.05    220.86,60.05 220.86,125.55 213.69,125.78  "/>
	<path class="st0" d="M238.08,87.05c0-23.83,18.08-40.26,40.61-40.26c17.96,0,29.93,9.39,29.93,18.67c0,5.63-3.64,9.5-8.45,9.5   c-5.28,0-8.92-3.28-8.92-8.33c0-1.52,0.35-3.05,0.82-3.99c-2.23-1.76-6.69-3.52-13.74-3.52c-15.02,0-26.52,11.15-26.52,27.82   c0,17.02,12.32,27.94,25.35,27.94c8.1,0,13.73-1.77,18.66-4.94V96.67h-19.25V85.41h32.28v40.02h-12.67v-5.75   c-5.4,4.23-12.32,7.16-21.01,7.16C256.16,126.83,238.08,111.81,238.08,87.05"/>
	<polygon class="st0" points="322.22,113.58 331.02,113.58 331.02,60.05 322.22,60.05 322.22,48.2 379.85,48.2 379.85,70.26    367.18,70.26 367.18,59.93 344.29,59.93 344.29,80.59 367.64,80.59 367.64,91.86 344.29,91.86 344.29,113.69 367.29,113.69    367.29,103.37 379.97,103.37 379.97,125.43 322.22,125.43  "/>
	<path class="st0" d="M436.52,72.03c0-8.1-6.68-11.97-17.37-11.97h-7.16v24.77c1.41,0.11,3.28,0.23,7.51,0.23   C429.48,85.05,436.52,80.12,436.52,72.03 M389.93,113.58h8.8V60.05h-8.8V48.2h29.93c17.73,0,30.4,7.63,30.4,23.36   c0,9.98-6.1,17.61-14.55,21.01l11.85,21.01h8.8v11.85h-17.84l-15.5-29.34c-1.64,0.11-3.17,0.23-4.69,0.23c-2.47,0-4.7,0-6.33-0.12   v17.38h9.62v11.85h-31.69V113.58z"/>
	<polygon class="st0" points="487.91,113.58 497.06,113.58 499.53,60.05 489.9,60.05 489.9,48.2 511.03,48.2 534.73,91.15    558.45,48.2 579.45,48.2 579.45,60.05 569.83,60.05 572.29,113.58 581.45,113.58 581.45,125.43 549.76,125.43 549.76,113.58    559.03,113.58 557.51,73.78 535.44,112.52 533.68,112.52 511.61,73.78 510.09,113.58 519.36,113.58 519.36,125.43 487.91,125.43     "/>
	<polygon class="st0" points="589.64,113.58 598.44,113.58 598.44,60.05 589.64,60.05 589.64,48.2 647.27,48.2 647.27,70.26    634.59,70.26 634.59,59.93 611.71,59.93 611.71,80.59 635.06,80.59 635.06,91.86 611.71,91.86 611.71,113.69 634.71,113.69    634.71,103.37 647.39,103.37 647.39,125.43 589.64,125.43  "/>
	<path class="st0" d="M687.04,113.58c19.95,0,30.29-10.8,30.29-27.35c0-16.9-11.97-26.17-31.23-26.17h-6.69v53.52H687.04z    M657.35,113.58h8.8V60.05h-8.8V48.2h29.23c27.93,0,44.48,14.55,44.48,37.91c0,23.59-15.61,39.32-45.9,39.32h-27.82V113.58z"/>
	<path class="st0" d="M912.97,205.31c-0.88,0-1.73-0.1-2.61-0.13c35.14-9.26,61.22-40.97,61.83-78.84h21.02   C992.49,170,956.8,205.31,912.97,205.31 M889.26,205.31c-0.88,0-1.73-0.1-2.61-0.13c0.87-0.23,1.75-0.42,2.61-0.67   c0.86,0.25,1.74,0.44,2.61,0.67C890.99,205.2,890.14,205.31,889.26,205.31 M862.94,205.18c0.87-0.23,1.75-0.42,2.61-0.67   c0.85,0.25,1.74,0.44,2.61,0.67c-0.87,0.03-1.73,0.13-2.61,0.13C864.67,205.31,863.81,205.2,862.94,205.18 M841.83,205.31   c-43.83,0-79.52-35.31-80.25-78.97h21.02c0.61,37.87,26.69,69.57,61.83,78.84C843.57,205.2,842.71,205.31,841.83,205.31    M841.83,44.68c0.88,0,1.73,0.1,2.61,0.13c-35.14,9.26-61.22,40.97-61.83,78.84h-21.02C762.31,79.99,798,44.68,841.83,44.68    M865.55,44.68c0.88,0,1.73,0.1,2.61,0.13c-0.87,0.23-1.75,0.41-2.61,0.67c-0.86-0.26-1.74-0.44-2.61-0.67   C863.81,44.79,864.67,44.68,865.55,44.68 M891.87,44.81c-0.87,0.23-1.75,0.41-2.61,0.67c-0.85-0.26-1.74-0.44-2.61-0.67   c0.87-0.03,1.73-0.13,2.61-0.13C890.14,44.68,890.99,44.79,891.87,44.81 M948.49,123.65c-0.57-35.23-23.18-65.11-54.62-76.57   c2.38-0.58,4.79-1.05,7.24-1.42c38.23,5.7,67.73,38.35,68.39,77.99H948.49z M948.49,126.34h21.02   c-0.66,39.64-30.16,72.29-68.39,77.99c-2.45-0.37-4.87-0.83-7.24-1.42C925.31,191.45,947.92,161.57,948.49,126.34 M880.5,198.38   c25.96-13.73,43.77-40.81,44.27-72.04h21.02c-0.59,35.44-24.2,65.37-56.53,75.39C886.25,200.79,883.34,199.65,880.5,198.38    M878.89,200.59c1.88,0.85,3.81,1.61,5.76,2.32c-1.9,0.46-3.81,0.86-5.76,1.19V200.59z M876.2,200.46v3.69   c-2.04-0.34-4.05-0.75-6.04-1.23C872.21,202.17,874.23,201.36,876.2,200.46 M809.01,126.34h21.02   c0.5,31.24,18.31,58.32,44.27,72.04c-2.84,1.27-5.76,2.41-8.76,3.34C833.21,191.71,809.6,161.78,809.01,126.34 M806.32,126.34   c0.57,35.23,23.18,65.11,54.62,76.57c-2.38,0.58-4.79,1.05-7.24,1.42c-38.23-5.7-67.73-38.35-68.39-77.99H806.32z M806.32,123.65   H785.3c0.66-39.64,30.16-72.29,68.39-77.99c2.45,0.37,4.87,0.83,7.24,1.42C829.49,58.54,806.89,88.43,806.32,123.65 M874.31,51.6   c-25.96,13.73-43.77,40.81-44.28,72.05h-21.02c0.59-35.44,24.2-65.37,56.53-75.39C868.55,49.2,871.46,50.34,874.31,51.6    M876.2,49.53c-1.97-0.9-3.99-1.71-6.04-2.46c1.99-0.49,4-0.9,6.04-1.23V49.53z M878.89,49.4v-3.51c1.95,0.33,3.86,0.72,5.76,1.19   C882.7,47.79,880.77,48.54,878.89,49.4 M878.89,123.65V53.81c25.29,13.22,42.68,39.49,43.19,69.84H878.89z M878.89,126.34h43.19   c-0.51,30.34-17.9,56.61-43.19,69.84V126.34z M832.72,123.65c0.51-30.45,18.03-56.8,43.47-69.97v69.97H832.72z M876.2,126.34v69.97   c-25.44-13.17-42.96-39.52-43.47-69.97H876.2z M924.77,123.65c-0.5-31.24-18.31-58.32-44.28-72.05c2.85-1.26,5.76-2.41,8.76-3.34   c32.33,10.01,55.95,39.95,56.53,75.39H924.77z M912.97,44.68c43.83,0,79.52,35.31,80.25,78.97H972.2   c-0.61-37.87-26.69-69.57-61.83-78.84C911.24,44.79,912.09,44.68,912.97,44.68 M1000,123.65h-4.09   c-0.73-45.15-37.62-81.66-82.94-81.66c-4.03,0-7.97,0.39-11.86,0.95c-3.88-0.56-7.82-0.95-11.86-0.95c-3.52,0-6.96,0.29-10.37,0.72   v-8.02h-2.69v8.07c-3.49-0.45-7.03-0.76-10.65-0.76c-4.04,0-7.97,0.39-11.86,0.95c-3.88-0.56-7.82-0.95-11.86-0.95   c-45.32,0-82.21,36.51-82.94,81.66h-3.81v2.69h3.81c0.73,45.15,37.62,81.66,82.94,81.66c4.03,0,7.97-0.39,11.86-0.95   c3.88,0.56,7.82,0.95,11.86,0.95c3.62,0,7.16-0.31,10.65-0.76v14.27h2.69v-14.22c3.4,0.43,6.85,0.72,10.37,0.72   c4.03,0,7.97-0.39,11.86-0.95c3.88,0.56,7.82,0.95,11.86,0.95c45.32,0,82.21-36.51,82.94-81.66h4.09V123.65z"/>
	<path class="st0" d="M166.3,183.01c-6.33-1.66-9.58-5.53-9.58-11.18c0-6.93,5.22-12.64,16.7-12.64c6.02,0,11.79,1.6,14.98,3.31   l-2.46,8.05c-3.07-1.97-8.29-3.5-12.83-3.5c-5.28,0-7.49,1.66-7.49,4.06c0,2.27,1.54,3.19,4.55,4.05l7.73,2.21   c7.55,2.15,11.24,5.59,11.24,11.54c0,7.86-6.94,13.2-17,13.2c-6.08,0-12.03-2.08-14.73-3.62l2.02-8.16   c3.01,1.96,7.86,3.93,12.89,3.93c5.03,0,7.86-1.91,7.86-4.66c0-2.28-2.21-3.37-5.95-4.42L166.3,183.01z"/>
	<path class="st0" d="M208.09,167.23v15.22h10.01c4.24,0,7.61-2.89,7.61-7.55c0-4.97-3.37-7.67-7.61-7.67H208.09z M199.5,159.74   h19.95c8.17,0,15.16,4.79,15.16,15.23c0,9.39-7,14.98-15.16,14.98h-11.36v11.54h-8.59V159.74z"/>
	<polygon class="st0" points="244.05,201.49 244.05,159.74 277.08,159.74 277.08,167.29 252.27,167.29 252.27,176.31 272.59,176.31    272.59,183.87 252.27,183.87 252.27,193.93 277.08,193.93 277.08,201.49  "/>
	<path class="st0" d="M323.3,195.34c-3.75,3.56-10.2,6.75-17.14,6.75c-12.34,0-21.48-7.98-21.48-21.42   c0-13.57,9.14-21.55,21.48-21.55c10.75,0,16.82,6.01,17.07,15.77l-7.92,1.66c-0.12-5.83-3.07-9.45-9.27-9.45   c-7.36,0-12.46,4.91-12.46,13.57c0,8.53,5.1,13.45,12.77,13.45c5.16,0,9.82-2.4,12.89-5.22L323.3,195.34z"/>
	<rect x="333.47" y="159.74" class="st0" width="8.59" height="41.75"/>
	<path class="st0" d="M363.91,186.75h14.61l-7.12-18.48L363.91,186.75z M366.37,159.74h10.07l16.14,41.75h-8.72l-3.19-8.35H361.7   l-3.25,8.35h-8.72L366.37,159.74z"/>
	<polygon class="st0" points="400.49,201.49 400.49,159.74 409.08,159.74 409.08,193.99 430.75,193.99 430.75,201.49  "/>
	<path class="st0" d="M463.34,186.75h14.61l-7.12-18.48L463.34,186.75z M465.79,159.74h10.07l16.14,41.75h-8.72l-3.19-8.35h-18.97   l-3.25,8.35h-8.72L465.79,159.74z"/>
	<path class="st0" d="M536.68,176.81v19.59c-3.86,3.07-11.41,5.71-17.8,5.71c-12.34,0-22.22-7.98-22.22-21.42   c0-13.57,9.88-21.55,22.22-21.55c6.75,0,12.03,2.27,16.21,5.65l-4,6.57c-3.25-2.71-7.12-4.24-12.03-4.24   c-7.62,0-13.51,4.91-13.51,13.57c0,8.53,5.9,13.45,13.88,13.45c3.32,0,6.39-0.86,8.66-2.21v-7.67h-10.99v-7.43H536.68z"/>
	<polygon class="st0" points="547.85,201.49 547.85,159.74 580.87,159.74 580.87,167.29 556.07,167.29 556.07,176.31 576.39,176.31    576.39,183.87 556.07,183.87 556.07,193.93 580.87,193.93 580.87,201.49  "/>
	<polygon class="st0" points="600.01,173.43 600.01,201.49 591.42,201.49 591.42,159.74 598.9,159.74 622.36,187.85 622.36,159.74    630.95,159.74 630.95,201.49 623.46,201.49  "/>
	<path class="st0" d="M680.11,195.34c-3.74,3.56-10.19,6.75-17.13,6.75c-12.33,0-21.48-7.98-21.48-21.42   c0-13.57,9.15-21.55,21.48-21.55c10.75,0,16.82,6.01,17.07,15.77l-7.92,1.66c-0.12-5.83-3.07-9.45-9.27-9.45   c-7.37,0-12.46,4.91-12.46,13.57c0,8.53,5.09,13.45,12.77,13.45c5.15,0,9.82-2.4,12.89-5.22L680.11,195.34z"/>
	<polygon class="st0" points="700.54,184.97 684.22,160.35 684.22,159.74 693.79,159.74 704.84,177.05 715.89,159.74 725.47,159.74    725.47,160.35 709.13,184.91 709.13,201.49 700.54,201.49  "/>
</g>
<g>
	<polygon class="st1" points="17.25,-212.72 26.88,-212.72 26.88,-266.6 12.56,-266.6 12.56,-254.39 0,-254.39 0,-278.1    67.02,-278.1 67.02,-254.39 54.46,-254.39 54.46,-266.6 40.14,-266.6 40.14,-212.72 49.77,-212.72 49.77,-200.87 17.25,-200.87     "/>
	<path class="st1" d="M115.24-236.32l-10.8-30.4l-10.8,30.4H115.24z M65.36-212.72h6.69l19.25-53.64h-8.45v-11.74h43.66v11.74h-8.45   l19.25,53.64H144v11.85h-29.7v-11.74h8.92l-4.35-12.67H90.01l-4.34,12.67h9.39v11.74h-29.7V-212.72z"/>
	<polygon class="st1" points="171.56,-254.16 171.56,-212.72 181.18,-212.72 181.18,-200.87 149.84,-200.87 149.84,-212.72    158.65,-212.72 158.65,-266.24 149.84,-266.24 149.84,-278.1 169.92,-278.1 207.94,-229.63 207.94,-266.24 198.32,-266.24    198.32,-278.1 229.31,-278.1 229.31,-266.24 220.86,-266.24 220.86,-200.75 213.69,-200.52  "/>
	<path class="st1" d="M238.08-239.25c0-23.83,18.08-40.26,40.61-40.26c17.96,0,29.93,9.39,29.93,18.67c0,5.63-3.64,9.5-8.45,9.5   c-5.28,0-8.92-3.28-8.92-8.33c0-1.52,0.35-3.05,0.82-3.99c-2.23-1.76-6.69-3.52-13.74-3.52c-15.02,0-26.52,11.15-26.52,27.82   c0,17.02,12.32,27.94,25.35,27.94c8.1,0,13.73-1.77,18.66-4.94v-13.26h-19.25v-11.27h32.28v40.02h-12.67v-5.75   c-5.4,4.23-12.32,7.16-21.01,7.16C256.16-199.46,238.08-214.49,238.08-239.25"/>
	<polygon class="st1" points="322.22,-212.72 331.02,-212.72 331.02,-266.24 322.22,-266.24 322.22,-278.1 379.85,-278.1    379.85,-256.04 367.18,-256.04 367.18,-266.36 344.29,-266.36 344.29,-245.71 367.64,-245.71 367.64,-234.44 344.29,-234.44    344.29,-212.61 367.29,-212.61 367.29,-222.93 379.97,-222.93 379.97,-200.87 322.22,-200.87  "/>
	<path class="st1" d="M436.52-254.27c0-8.1-6.68-11.97-17.37-11.97h-7.16v24.77c1.41,0.11,3.28,0.23,7.51,0.23   C429.48-241.25,436.52-246.17,436.52-254.27 M389.93-212.72h8.8v-53.52h-8.8v-11.85h29.93c17.73,0,30.4,7.63,30.4,23.36   c0,9.98-6.1,17.61-14.55,21.01l11.85,21.01h8.8v11.85h-17.84l-15.5-29.34c-1.64,0.11-3.17,0.23-4.69,0.23c-2.47,0-4.7,0-6.33-0.12   v17.38h9.62v11.85h-31.69V-212.72z"/>
	<polygon class="st1" points="487.91,-212.72 497.06,-212.72 499.53,-266.24 489.9,-266.24 489.9,-278.1 511.03,-278.1    534.73,-235.15 558.45,-278.1 579.45,-278.1 579.45,-266.24 569.83,-266.24 572.29,-212.72 581.45,-212.72 581.45,-200.87    549.76,-200.87 549.76,-212.72 559.03,-212.72 557.51,-252.51 535.44,-213.78 533.68,-213.78 511.61,-252.51 510.09,-212.72    519.36,-212.72 519.36,-200.87 487.91,-200.87  "/>
	<polygon class="st1" points="589.64,-212.72 598.44,-212.72 598.44,-266.24 589.64,-266.24 589.64,-278.1 647.27,-278.1    647.27,-256.04 634.59,-256.04 634.59,-266.36 611.71,-266.36 611.71,-245.71 635.06,-245.71 635.06,-234.44 611.71,-234.44    611.71,-212.61 634.71,-212.61 634.71,-222.93 647.39,-222.93 647.39,-200.87 589.64,-200.87  "/>
	<path class="st1" d="M687.04-212.72c19.95,0,30.29-10.8,30.29-27.35c0-16.9-11.97-26.17-31.23-26.17h-6.69v53.52H687.04z    M657.35-212.72h8.8v-53.52h-8.8v-11.85h29.23c27.93,0,44.48,14.55,44.48,37.91c0,23.59-15.61,39.32-45.9,39.32h-27.82V-212.72z"/>
	<path class="st1" d="M912.97-120.99c-0.88,0-1.73-0.1-2.61-0.13c35.14-9.26,61.22-40.97,61.83-78.84h21.02   C992.49-156.3,956.8-120.99,912.97-120.99 M889.26-120.99c-0.88,0-1.73-0.1-2.61-0.13c0.87-0.23,1.75-0.42,2.61-0.67   c0.86,0.25,1.74,0.44,2.61,0.67C890.99-121.09,890.14-120.99,889.26-120.99 M862.94-121.12c0.87-0.23,1.75-0.42,2.61-0.67   c0.85,0.25,1.74,0.44,2.61,0.67c-0.87,0.03-1.73,0.13-2.61,0.13C864.67-120.99,863.81-121.09,862.94-121.12 M841.83-120.99   c-43.83,0-79.52-35.31-80.25-78.97h21.02c0.61,37.87,26.69,69.57,61.83,78.84C843.57-121.09,842.71-120.99,841.83-120.99    M841.83-281.62c0.88,0,1.73,0.1,2.61,0.13c-35.14,9.26-61.22,40.97-61.83,78.84h-21.02C762.31-246.31,798-281.62,841.83-281.62    M865.55-281.62c0.88,0,1.73,0.1,2.61,0.13c-0.87,0.23-1.75,0.41-2.61,0.67c-0.86-0.26-1.74-0.44-2.61-0.67   C863.81-281.51,864.67-281.62,865.55-281.62 M891.87-281.48c-0.87,0.23-1.75,0.41-2.61,0.67c-0.85-0.26-1.74-0.44-2.61-0.67   c0.87-0.03,1.73-0.13,2.61-0.13C890.14-281.62,890.99-281.51,891.87-281.48 M948.49-202.65c-0.57-35.23-23.18-65.11-54.62-76.57   c2.38-0.58,4.79-1.05,7.24-1.42c38.23,5.7,67.73,38.35,68.39,77.99H948.49z M948.49-199.96h21.02   c-0.66,39.64-30.16,72.29-68.39,77.99c-2.45-0.37-4.87-0.83-7.24-1.42C925.31-134.85,947.92-164.73,948.49-199.96 M880.5-127.91   c25.96-13.73,43.77-40.81,44.27-72.04h21.02c-0.59,35.44-24.2,65.37-56.53,75.39C886.25-125.5,883.34-126.65,880.5-127.91    M878.89-125.7c1.88,0.85,3.81,1.61,5.76,2.32c-1.9,0.46-3.81,0.86-5.76,1.19V-125.7z M876.2-125.84v3.69   c-2.04-0.34-4.05-0.75-6.04-1.23C872.21-124.13,874.23-124.94,876.2-125.84 M809.01-199.96h21.02   c0.5,31.24,18.31,58.32,44.27,72.04c-2.84,1.27-5.76,2.41-8.76,3.34C833.21-134.58,809.6-164.51,809.01-199.96 M806.32-199.96   c0.57,35.23,23.18,65.11,54.62,76.57c-2.38,0.58-4.79,1.05-7.24,1.42c-38.23-5.7-67.73-38.35-68.39-77.99H806.32z M806.32-202.65   H785.3c0.66-39.64,30.16-72.29,68.39-77.99c2.45,0.37,4.87,0.83,7.24,1.42C829.49-267.76,806.89-237.87,806.32-202.65    M874.31-274.69c-25.96,13.73-43.77,40.81-44.28,72.05h-21.02c0.59-35.44,24.2-65.37,56.53-75.39   C868.55-277.1,871.46-275.96,874.31-274.69 M876.2-276.76c-1.97-0.9-3.99-1.71-6.04-2.46c1.99-0.49,4-0.9,6.04-1.23V-276.76z    M878.89-276.9v-3.51c1.95,0.33,3.86,0.72,5.76,1.19C882.7-278.51,880.77-277.75,878.89-276.9 M878.89-202.65v-69.84   c25.29,13.22,42.68,39.49,43.19,69.84H878.89z M878.89-199.96h43.19c-0.51,30.34-17.9,56.61-43.19,69.84V-199.96z M832.72-202.65   c0.51-30.45,18.03-56.8,43.47-69.97v69.97H832.72z M876.2-199.96v69.97c-25.44-13.17-42.96-39.52-43.47-69.97H876.2z    M924.77-202.65c-0.5-31.24-18.31-58.32-44.28-72.05c2.85-1.26,5.76-2.41,8.76-3.34c32.33,10.01,55.95,39.95,56.53,75.39H924.77z    M912.97-281.62c43.83,0,79.52,35.31,80.25,78.97H972.2c-0.61-37.87-26.69-69.57-61.83-78.84   C911.24-281.51,912.09-281.62,912.97-281.62 M1000-202.65h-4.09c-0.73-45.15-37.62-81.66-82.94-81.66c-4.03,0-7.97,0.39-11.86,0.95   c-3.88-0.56-7.82-0.95-11.86-0.95c-3.52,0-6.96,0.29-10.37,0.72v-8.02h-2.69v8.07c-3.49-0.45-7.03-0.76-10.65-0.76   c-4.04,0-7.97,0.39-11.86,0.95c-3.88-0.56-7.82-0.95-11.86-0.95c-45.32,0-82.21,36.51-82.94,81.66h-3.81v2.69h3.81   c0.73,45.15,37.62,81.66,82.94,81.66c4.03,0,7.97-0.39,11.86-0.95c3.88,0.56,7.82,0.95,11.86,0.95c3.62,0,7.16-0.31,10.65-0.76   v14.27h2.69v-14.22c3.4,0.43,6.85,0.72,10.37,0.72c4.03,0,7.97-0.39,11.86-0.95c3.88,0.56,7.82,0.95,11.86,0.95   c45.32,0,82.21-36.51,82.94-81.66h4.09V-202.65z"/>
	<path class="st1" d="M166.3-143.29c-6.33-1.66-9.58-5.53-9.58-11.18c0-6.93,5.22-12.64,16.7-12.64c6.02,0,11.79,1.6,14.98,3.31   l-2.46,8.05c-3.07-1.97-8.29-3.5-12.83-3.5c-5.28,0-7.49,1.66-7.49,4.06c0,2.27,1.54,3.19,4.55,4.05l7.73,2.21   c7.55,2.15,11.24,5.59,11.24,11.54c0,7.86-6.94,13.2-17,13.2c-6.08,0-12.03-2.08-14.73-3.62l2.02-8.16   c3.01,1.96,7.86,3.93,12.89,3.93c5.03,0,7.86-1.91,7.86-4.66c0-2.28-2.21-3.37-5.95-4.42L166.3-143.29z"/>
	<path class="st1" d="M208.09-159.07v15.22h10.01c4.24,0,7.61-2.89,7.61-7.55c0-4.97-3.37-7.67-7.61-7.67H208.09z M199.5-166.56   h19.95c8.17,0,15.16,4.79,15.16,15.23c0,9.39-7,14.98-15.16,14.98h-11.36v11.54h-8.59V-166.56z"/>
	<polygon class="st1" points="244.05,-124.81 244.05,-166.56 277.08,-166.56 277.08,-159.01 252.27,-159.01 252.27,-149.99    272.59,-149.99 272.59,-142.43 252.27,-142.43 252.27,-132.36 277.08,-132.36 277.08,-124.81  "/>
	<path class="st1" d="M323.3-130.95c-3.75,3.56-10.2,6.75-17.14,6.75c-12.34,0-21.48-7.98-21.48-21.42   c0-13.57,9.14-21.55,21.48-21.55c10.75,0,16.82,6.01,17.07,15.77l-7.92,1.66c-0.12-5.83-3.07-9.45-9.27-9.45   c-7.36,0-12.46,4.91-12.46,13.57c0,8.53,5.1,13.45,12.77,13.45c5.16,0,9.82-2.4,12.89-5.22L323.3-130.95z"/>
	<rect x="333.47" y="-166.56" class="st1" width="8.59" height="41.75"/>
	<path class="st1" d="M363.91-139.54h14.61l-7.12-18.48L363.91-139.54z M366.37-166.56h10.07l16.14,41.75h-8.72l-3.19-8.35H361.7   l-3.25,8.35h-8.72L366.37-166.56z"/>
	<polygon class="st1" points="400.49,-124.81 400.49,-166.56 409.08,-166.56 409.08,-132.3 430.75,-132.3 430.75,-124.81  "/>
	<path class="st1" d="M463.34-139.54h14.61l-7.12-18.48L463.34-139.54z M465.79-166.56h10.07l16.14,41.75h-8.72l-3.19-8.35h-18.97   l-3.25,8.35h-8.72L465.79-166.56z"/>
	<path class="st1" d="M536.68-149.49v19.59c-3.86,3.07-11.41,5.71-17.8,5.71c-12.34,0-22.22-7.98-22.22-21.42   c0-13.57,9.88-21.55,22.22-21.55c6.75,0,12.03,2.27,16.21,5.65l-4,6.57c-3.25-2.71-7.12-4.24-12.03-4.24   c-7.62,0-13.51,4.91-13.51,13.57c0,8.53,5.9,13.45,13.88,13.45c3.32,0,6.39-0.86,8.66-2.21v-7.67h-10.99v-7.43H536.68z"/>
	<polygon class="st1" points="547.85,-124.81 547.85,-166.56 580.87,-166.56 580.87,-159.01 556.07,-159.01 556.07,-149.99    576.39,-149.99 576.39,-142.43 556.07,-142.43 556.07,-132.36 580.87,-132.36 580.87,-124.81  "/>
	<polygon class="st1" points="600.01,-152.87 600.01,-124.81 591.42,-124.81 591.42,-166.56 598.9,-166.56 622.36,-138.45    622.36,-166.56 630.95,-166.56 630.95,-124.81 623.46,-124.81  "/>
	<path class="st1" d="M680.11-130.95c-3.74,3.56-10.19,6.75-17.13,6.75c-12.33,0-21.48-7.98-21.48-21.42   c0-13.57,9.15-21.55,21.48-21.55c10.75,0,16.82,6.01,17.07,15.77l-7.92,1.66c-0.12-5.83-3.07-9.45-9.27-9.45   c-7.37,0-12.46,4.91-12.46,13.57c0,8.53,5.09,13.45,12.77,13.45c5.15,0,9.82-2.4,12.89-5.22L680.11-130.95z"/>
	<polygon class="st1" points="700.54,-141.33 684.22,-165.95 684.22,-166.56 693.79,-166.56 704.84,-149.25 715.89,-166.56    725.47,-166.56 725.47,-165.95 709.13,-141.39 709.13,-124.81 700.54,-124.81  "/>
</g>
</svg>
